<?xml version="1.0" standalone="no"?>
<!DOCTYPE svg PUBLIC "-//W3C//DTD SVG 20010904//EN"
 "http://www.w3.org/TR/2001/REC-SVG-20010904/DTD/svg10.dtd">
<svg version="1.0" xmlns="http://www.w3.org/2000/svg"
 width="2048.000000pt" height="2048.000000pt" viewBox="0 0 2048.000000 2048.000000"
 preserveAspectRatio="xMidYMid meet">
<metadata>
Created by potrace 1.16, written by Peter Selinger 2001-2019
</metadata>
<g transform="translate(0.000000,2048.000000) scale(0.100000,-0.100000)"
fill="#000000" stroke="none">
<path d="M0 10240 l0 -10240 10240 0 10240 0 0 10240 0 10240 -10240 0 -10240
0 0 -10240z m6220 5818 c14 -1 151 0 305 4 154 3 268 4 252 1 -15 -2 -25 -8
-23 -12 3 -4 50 -6 106 -3 69 3 100 1 100 -6 0 -7 -30 -13 -77 -15 l-78 -3 87
-1 c50 0 94 -5 101 -12 10 -8 103 -11 307 -11 161 1 295 -2 298 -5 3 -3 -368
-5 -824 -5 -824 0 -921 -3 -1068 -36 -38 -8 -71 -12 -74 -9 -3 3 3 5 13 5 18
0 18 1 2 17 -14 14 -21 15 -35 7 -15 -10 -20 -7 -29 12 -16 34 0 42 119 63 82
15 142 18 298 15 107 -2 206 -4 220 -6z m1313 -45 c-18 -2 -48 -2 -65 0 -18 2
-4 4 32 4 36 0 50 -2 33 -4z m450 -20 c-13 -2 -33 -2 -45 0 -13 2 -3 4 22 4
25 0 35 -2 23 -4z m204 1 c-3 -3 -12 -4 -19 -1 -8 3 -5 6 6 6 11 1 17 -2 13
-5z m596 -1 c-13 -2 -33 -2 -45 0 -13 2 -3 4 22 4 25 0 35 -2 23 -4z m615 0
c-21 -2 -57 -2 -80 0 -24 2 -7 4 37 4 44 0 63 -2 43 -4z m-4280 -213 c2 -34
-1 -50 -9 -50 -7 0 -9 -3 -6 -6 8 -9 38 16 32 25 -2 4 10 8 28 8 31 0 31 -1 7
-11 -14 -6 -27 -13 -30 -16 -18 -21 -64 -49 -71 -44 -5 3 -8 2 -7 -3 2 -5 -13
-23 -32 -40 -30 -26 -39 -29 -60 -21 l-25 10 23 9 c13 5 29 6 35 2 7 -4 6 1
-2 10 -7 9 -17 15 -21 12 -5 -3 -11 -1 -15 5 -14 22 26 21 46 -1 11 -13 17
-18 13 -10 -4 9 -3 12 4 7 6 -3 14 -1 18 5 4 7 3 10 -2 6 -5 -3 -18 1 -28 9
-17 12 -17 14 -3 20 23 9 21 20 -3 20 -12 0 -19 -5 -16 -12 3 -7 -9 -15 -29
-18 -19 -4 -37 -12 -41 -18 -5 -7 -2 -9 9 -5 12 5 14 1 10 -21 -3 -15 -6 -33
-6 -39 0 -7 -4 -13 -9 -13 -5 0 -6 11 -2 25 6 24 -1 30 -31 26 -5 -1 14 21 44
49 39 35 61 49 76 46 12 -2 28 0 36 5 10 7 6 8 -13 5 -16 -3 -28 -4 -28 -2 0
1 15 13 33 26 24 18 28 19 17 5 -14 -17 -13 -18 3 -12 11 4 20 1 23 -8 8 -19
21 -19 21 0 0 8 -4 12 -9 9 -18 -11 -20 27 -2 41 11 8 19 15 19 15 0 0 1 -23
3 -50z m-248 -144 c0 -2 -8 -10 -17 -17 -16 -13 -17 -12 -4 4 13 16 21 21 21
13z m30 -16 c0 -5 -2 -10 -4 -10 -3 0 -8 5 -11 10 -3 6 -1 10 4 10 6 0 11 -4
11 -10z m-310 -350 c-9 -5 -9 -9 -1 -14 15 -10 14 -43 -1 -48 -8 -3 -6 -13 9
-32 18 -23 20 -32 11 -56 -5 -17 -14 -30 -20 -30 -5 0 -7 -3 -5 -7 3 -5 -7
-39 -23 -77 -17 -43 -30 -64 -33 -55 -4 8 -5 5 -2 -6 2 -11 -4 -47 -14 -80
-17 -57 -19 -59 -25 -30 -13 52 -15 54 -37 50 -12 -2 -24 -7 -28 -11 -3 -4 2
-4 12 -1 21 8 23 -15 3 -32 -11 -9 -15 -9 -19 1 -3 7 -6 2 -7 -12 -1 -14 -5
-34 -10 -45 -6 -13 -7 -5 -3 25 12 96 107 353 137 372 6 4 8 8 3 8 -4 0 4 23
18 50 15 30 30 48 36 44 8 -4 7 -9 -1 -14z m31 -47 c-12 -20 -14 -14 -5 12 4
9 9 14 11 11 3 -2 0 -13 -6 -23z m19 -37 c-7 -7 -14 -6 -21 1 -9 9 -7 12 9 10
14 -1 18 -5 12 -11z m-160 -371 c0 -5 -5 -3 -10 5 -5 8 -10 20 -10 25 0 6 5 3
10 -5 5 -8 10 -19 10 -25z m-113 -582 c-1 -43 -3 -8 -3 77 0 85 2 120 3 78 2
-43 2 -113 0 -155z m7804 -9 c55 -26 111 -79 141 -137 l23 -42 3 -835 c2 -825
2 -835 -18 -886 -25 -61 -78 -115 -140 -143 -45 -20 -57 -21 -1901 -21 -2087
0 -1914 -7 -1995 76 -85 88 -79 11 -79 964 l0 845 22 41 c46 87 110 138 193
155 19 4 861 6 1870 5 l1835 -1 46 -21z m-4556 -268 c61 -29 107 -76 134 -137
20 -45 21 -65 22 -761 1 -656 0 -718 -16 -741 -9 -15 -14 -31 -11 -36 4 -5 1
-13 -5 -17 -8 -5 -9 -3 -4 7 5 8 -14 -7 -41 -32 -96 -89 -46 -84 -904 -84
l-755 0 -42 23 c-24 12 -43 20 -43 17 0 -4 -12 7 -26 22 -15 15 -21 20 -14 11
6 -9 9 -22 5 -28 -3 -5 1 -10 9 -10 9 0 15 -3 15 -7 -3 -20 2 -34 11 -28 6 3
16 3 23 -2 6 -4 24 -8 38 -9 52 -3 97 -76 51 -82 -29 -4 -94 17 -87 29 4 5 -3
9 -15 9 -12 0 -19 4 -16 9 3 5 -4 11 -15 14 -13 4 -18 10 -13 18 4 7 3 10 -4
5 -11 -7 -46 36 -61 76 -6 15 -11 336 -13 784 l-3 759 23 50 c25 54 50 85 96
118 65 47 58 46 856 46 l755 1 50 -24z m6872 9 c65 -19 139 -85 169 -150 l24
-50 0 -714 c0 -393 -3 -712 -6 -708 -4 3 -18 -16 -31 -44 -28 -56 -89 -110
-148 -130 -33 -11 -178 -14 -785 -14 l-745 0 -49 25 c-56 29 -109 86 -138 149
-19 43 -20 59 -15 746 l4 701 29 53 c35 66 94 117 154 136 69 21 1464 22 1537
0z m-6720 -1677 c-3 -8 -6 -5 -6 6 -1 11 2 17 5 13 3 -3 4 -12 1 -19z m5038
-40 c14 -11 22 -25 18 -33 -4 -11 -1 -13 11 -9 12 5 15 2 9 -12 -4 -11 -3 -15
5 -10 7 4 10 -3 9 -21 -2 -29 16 -38 41 -19 7 5 12 5 11 0 -1 -5 0 -11 1 -14
1 -3 3 -15 4 -27 2 -21 1 -21 -25 -8 -33 17 -94 89 -108 128 -6 16 -10 43 -10
60 1 27 3 28 6 8 3 -14 15 -33 28 -43z m-5065 -10 c0 -9 4 -8 10 2 8 13 10 13
10 -2 0 -25 -14 -29 -28 -7 -7 11 -8 19 -2 19 5 0 10 -6 10 -12z m6910 -38
c-6 -11 -13 -20 -16 -20 -2 0 0 9 6 20 6 11 13 20 16 20 2 0 0 -9 -6 -20z
m-6916 -5 c7 -20 -56 -88 -86 -91 -12 -1 -27 -3 -31 -3 -5 -1 -6 -5 -3 -10 3
-5 0 -11 -8 -14 -10 -4 -12 0 -9 14 6 22 38 43 53 34 6 -3 10 -1 10 5 0 6 12
15 26 20 23 9 24 12 13 27 -10 12 -10 15 -1 9 7 -4 15 -1 18 8 8 20 10 20 18
1z m-224 -70 c11 -13 2 -15 -71 -13 -46 1 -65 3 -41 5 23 2 42 8 42 14 0 15
56 10 70 -6z m5431 -2 c13 -16 12 -17 -3 -4 -17 13 -22 21 -14 21 2 0 10 -8
17 -17z m-6798 0 c-13 -2 -33 -2 -45 0 -13 2 -3 4 22 4 25 0 35 -2 23 -4z
m1100 0 c-7 -2 -21 -2 -30 0 -10 3 -4 5 12 5 17 0 24 -2 18 -5z m7336 -9 c-12
-14 -61 -44 -74 -44 -3 0 -5 10 -5 22 0 17 3 19 12 10 15 -15 32 -16 23 -2 -3
6 3 10 14 10 11 0 23 5 26 10 3 6 9 10 12 10 3 0 0 -7 -8 -16z m-7636 -1 c-13
-2 -33 -2 -45 0 -13 2 -3 4 22 4 25 0 35 -2 23 -4z m597 -43 c0 -4 -9 -6 -21
-3 -15 4 -17 8 -8 14 14 8 29 3 29 -11z m5455 -8 c-24 -5 -67 7 -61 17 3 4 22
3 41 -3 21 -6 29 -12 20 -14z m1495 8 c0 -5 -17 -9 -37 -9 -38 1 -38 1 -8 9
43 11 45 11 45 0z m-867 -7 c-35 -2 -91 -2 -125 0 -35 2 -7 3 62 3 69 0 97 -1
63 -3z m-3243 -498 l0 -485 604 0 c649 0 644 0 693 -52 51 -54 53 -70 53 -473
l0 -375 -22 1 c-19 0 -20 2 -6 7 12 5 14 12 9 21 -5 7 -13 11 -18 8 -5 -3 -9
4 -9 15 1 16 -7 24 -31 30 -18 5 -33 13 -33 18 0 5 -10 10 -22 12 -25 4 -37
28 -14 28 25 0 19 13 -16 33 -25 14 -33 15 -39 5 -5 -7 -10 -8 -11 -3 -1 6 -4
-19 -8 -55 -4 -37 -7 58 -8 218 -1 182 2 282 8 282 6 0 10 5 10 11 0 5 -4 7
-10 4 -5 -3 -10 3 -10 14 l0 21 -1235 0 -1235 0 2 -341 3 -340 325 -2 c307 -2
328 -3 370 -23 68 -31 106 -68 139 -136 l31 -61 0 -708 0 -708 -36 -61 c-39
-67 -93 -109 -166 -129 -32 -9 -240 -11 -788 -9 l-745 3 -47 27 c-58 35 -99
83 -121 146 -16 45 -18 107 -18 746 1 660 2 700 19 740 28 62 76 112 140 143
l57 28 390 5 c215 3 353 7 309 8 l-82 2 -7 297 c-11 452 -1 523 85 576 35 22
36 22 653 25 l617 3 0 484 0 485 110 0 110 0 0 -485z m1998 -1420 c96 -31 170
-128 174 -230 6 -120 -6 -1192 -12 -1125 -4 41 -7 62 -8 45 -3 -41 -17 -63
-26 -40 -3 9 -10 13 -16 10 -5 -3 -10 1 -10 9 0 12 -10 16 -40 16 -22 0 -40
-4 -40 -10 0 -5 -4 -10 -10 -10 -5 0 -10 7 -10 15 0 10 -10 15 -30 15 -22 0
-28 -4 -24 -15 5 -12 -3 -15 -36 -15 -40 0 -70 17 -70 39 0 6 4 11 9 11 17 0
5 36 -22 63 -15 15 -25 32 -22 38 4 5 -7 15 -24 22 -37 14 -42 24 -51 112 -7
68 -7 67 -9 -40 -2 -126 -12 -184 -37 -202 -12 -9 -57 -13 -141 -13 -118 0
-125 1 -148 25 -25 24 -25 24 -25 236 0 117 -2 210 -4 208 -2 -2 -6 -94 -9
-204 -4 -192 1 -290 18 -327 5 -13 3 -18 -7 -18 -14 0 -68 -43 -68 -55 0 -3 8
-5 17 -5 10 0 13 -3 7 -9 -11 -11 -144 -32 -193 -31 -19 0 -31 -3 -27 -7 4 -5
13 -8 19 -8 28 0 10 -30 -22 -36 -26 -5 -39 -3 -54 12 -12 10 -31 19 -44 19
-13 0 -23 5 -23 11 0 6 -11 20 -25 31 -34 26 -32 34 14 58 47 23 51 29 55 75
2 19 8 40 13 47 5 7 6 24 2 38 -6 22 -7 22 -8 4 -1 -11 -13 -31 -27 -45 -24
-23 -33 -24 -144 -24 -112 0 -120 1 -144 24 -14 14 -26 35 -26 48 0 13 -4 23
-8 23 -5 0 -7 -13 -6 -30 1 -17 -3 -30 -9 -30 -8 0 -7 -4 1 -9 11 -7 10 -12
-5 -27 -10 -11 -29 -40 -43 -66 -13 -27 -30 -48 -36 -48 -6 0 -34 -25 -62 -55
-28 -30 -62 -57 -76 -61 -14 -3 -26 -12 -26 -20 0 -10 -12 -14 -40 -14 -39 0
-40 1 -41 38 -2 30 -3 32 -6 10 -2 -16 -9 -28 -15 -28 -6 0 -8 -9 -5 -19 3
-14 1 -18 -10 -14 -12 5 -13 2 -5 -13 6 -10 20 -43 31 -73 17 -42 18 -51 5
-40 -30 25 -54 87 -54 141 0 38 3 49 10 38 8 -12 10 -10 10 9 0 14 -5 21 -12
18 -10 -3 -13 17 -13 82 0 47 -2 345 -4 662 -3 576 -3 576 19 628 13 28 39 65
58 82 71 63 75 64 442 69 557 8 1158 1 1208 -15z m-5016 5 c53 -15 118 -68
153 -125 l30 -48 0 -731 c0 -694 -1 -733 -19 -766 -26 -49 -74 -98 -121 -123
l-40 -22 -775 0 -775 0 -46 27 c-57 34 -94 82 -119 154 -18 52 -19 89 -17 747
l2 692 26 50 c35 66 73 103 134 131 l50 24 740 0 c479 0 753 -4 777 -10z
m7368 -13 c48 -23 107 -82 133 -131 26 -51 31 -171 7 -186 -8 -5 -21 -8 -27
-5 -7 2 -13 0 -13 -5 0 -20 -46 -55 -67 -52 -13 2 -23 8 -23 13 0 5 -6 9 -14
9 -9 0 -12 -7 -9 -18 3 -14 -6 -23 -36 -37 -25 -11 -41 -25 -41 -35 0 -14 -12
-19 -52 -23 -100 -11 -223 -34 -245 -45 -12 -7 -40 -12 -62 -12 -35 0 -48 -7
-88 -45 -25 -25 -54 -45 -64 -45 -10 0 -27 -12 -38 -26 -20 -25 -23 -26 -96
-19 -41 4 -75 12 -75 18 0 6 -20 8 -55 4 -40 -4 -59 -2 -69 9 -16 15 -66 19
-66 5 0 -16 -59 -30 -153 -37 -51 -4 -103 -13 -117 -20 -24 -13 -24 -13 18
-14 23 0 42 -4 42 -10 0 -5 -20 -10 -45 -10 -26 0 -63 -9 -85 -20 -22 -11 -55
-20 -75 -20 -19 0 -35 -4 -35 -10 0 -5 7 -10 15 -10 14 0 13 -3 -2 -25 -14
-18 -27 -24 -55 -25 -34 0 -38 3 -38 25 0 14 -4 25 -10 25 -15 0 -12 -77 3
-84 6 -3 2 -3 -10 0 -17 4 -23 1 -23 -11 0 -10 -7 -15 -17 -13 -18 3 -19 5
-22 61 -2 28 -3 30 -11 11 -5 -12 -13 -25 -19 -28 -6 -4 -7 -14 -4 -24 6 -14
4 -15 -8 -5 -8 6 -19 9 -24 5 -18 -12 -35 -51 -35 -77 0 -14 -4 -25 -10 -25
-5 0 -11 -24 -12 -52 -1 -29 -5 143 -8 382 -4 346 -3 445 8 483 21 75 90 143
172 168 14 4 363 7 775 6 695 -2 753 -3 785 -20z m-465 -547 c-3 -5 -10 -10
-16 -10 -5 0 -9 5 -9 10 0 6 7 10 16 10 8 0 12 -4 9 -10z m-85 -74 c0 -3 -4
-8 -10 -11 -5 -3 -10 -1 -10 4 0 6 5 11 10 11 6 0 10 -2 10 -4z m-2022 -581
c-3 -3 -9 2 -12 12 -6 14 -5 15 5 6 7 -7 10 -15 7 -18z m-353 -205 c3 -5 -1
-10 -9 -10 -9 0 -16 5 -16 10 0 6 4 10 9 10 6 0 13 -4 16 -10z m-1090 -210
c-4 -12 -9 -19 -12 -17 -3 3 -2 15 2 27 4 12 9 19 12 17 3 -3 2 -15 -2 -27z
m-2728 -42 c-3 -8 -6 -5 -6 6 -1 11 2 17 5 13 3 -3 4 -12 1 -19z m16 -57 c-2
-10 3 -26 13 -36 17 -16 30 -55 19 -55 -10 0 -46 83 -41 96 8 21 15 17 9 -5z
m67 -111 c0 -6 8 -14 18 -17 9 -4 23 -13 31 -21 7 -7 20 -11 28 -8 8 3 11 1 8
-4 -3 -6 -5 -11 -3 -12 2 -1 185 -5 408 -8 l405 -6 -400 0 c-389 1 -401 2
-440 22 -43 24 -85 64 -67 64 7 0 12 -5 12 -10z m1714 -12 c-8 -12 10 -10 26
5 11 9 11 8 0 -7 -18 -23 -107 -66 -135 -65 -17 1 -17 2 -2 6 9 2 17 11 17 19
0 11 6 13 21 9 16 -5 19 -4 14 5 -5 9 -4 11 4 6 13 -8 44 12 36 23 -2 4 2 8
10 8 8 0 12 -4 9 -9z m-177 -64 c-3 -3 -12 -4 -19 -1 -8 3 -5 6 6 6 11 1 17
-2 13 -5z m2036 -781 c-171 -3 -203 -6 -203 -18 0 -11 -12 -15 -42 -16 -32 -1
-37 -3 -20 -7 13 -4 -53 -8 -145 -9 -96 -1 -155 2 -138 7 l30 7 -32 8 c-18 4
-30 11 -27 16 3 5 -38 9 -90 9 -53 0 -96 -4 -96 -9 0 -13 -233 -13 -241 0 -4
8 -32 8 -85 3 l-79 -8 50 -7 c28 -4 82 -8 120 -9 39 -1 84 -6 100 -10 21 -5 8
-7 -40 -6 -38 0 -569 -3 -1178 -7 -967 -7 -1117 -10 -1180 -24 -40 -9 -82 -16
-94 -17 -11 -1 -19 -4 -17 -7 2 -3 -19 -16 -46 -28 -26 -12 -68 -35 -91 -51
-32 -21 -46 -26 -52 -17 -6 8 -7 7 -4 -3 2 -9 -22 -43 -57 -80 -61 -65 -139
-204 -153 -270 -8 -44 -22 -26 -17 23 7 59 22 111 49 173 27 61 92 150 107
146 5 -1 7 2 4 7 -13 20 144 138 166 125 7 -4 8 -3 4 4 -7 12 37 28 63 23 7
-1 10 2 7 7 -5 9 81 34 154 45 14 3 801 4 1750 3 949 0 1634 -2 1523 -3z m607
-23 c0 -5 -2 -10 -4 -10 -3 0 -8 5 -11 10 -3 6 -1 10 4 10 6 0 11 -4 11 -10z
m131 -45 c30 -16 47 -30 43 -37 -4 -7 -3 -8 4 -4 15 9 63 -23 55 -38 -3 -6 -3
-8 2 -4 10 10 37 -11 29 -23 -3 -5 1 -7 8 -4 7 3 28 -13 46 -35 29 -35 30 -38
11 -35 -12 3 -24 7 -27 10 -3 2 -11 0 -18 -6 -15 -12 -37 -3 -28 12 3 5 2 8
-3 7 -4 -2 -47 22 -95 52 -85 54 -94 66 -74 99 5 8 3 16 -5 22 -29 18 4 8 52
-16z m-2980 -408 c37 -28 39 -50 39 -364 -1 -169 -5 -328 -9 -353 -10 -49 -40
-80 -77 -80 -35 0 -635 311 -681 353 -16 14 -23 32 -23 58 0 51 6 55 353 239
325 172 351 182 398 147z m800 13 c140 0 130 31 127 -396 l-3 -356 -28 -24
c-26 -22 -37 -24 -133 -24 -115 0 -157 13 -168 52 -3 13 -6 174 -6 359 0 322
1 337 20 362 19 24 59 38 88 30 8 -1 54 -3 103 -3z m1146 -58 c59 -32 146 -79
193 -103 165 -84 315 -170 333 -191 24 -28 21 -72 -5 -102 -13 -13 -70 -49
-128 -79 -441 -228 -541 -277 -562 -277 -14 0 -37 11 -52 25 l-26 24 0 353 c0
309 2 356 16 376 40 58 89 52 231 -26z"/>
<path d="M6013 16053 c15 -2 37 -2 50 0 12 2 0 4 -28 4 -27 0 -38 -2 -22 -4z"/>
<path d="M6578 16053 c12 -2 32 -2 45 0 12 2 2 4 -23 4 -25 0 -35 -2 -22 -4z"/>
<path d="M6578 16033 c12 -2 32 -2 45 0 12 2 2 4 -23 4 -25 0 -35 -2 -22 -4z"/>
<path d="M5596 16012 c-3 -5 1 -9 9 -9 8 0 12 4 9 9 -3 4 -7 8 -9 8 -2 0 -6
-4 -9 -8z"/>
<path d="M5076 15717 c3 -10 9 -15 12 -12 3 3 0 11 -7 18 -10 9 -11 8 -5 -6z"/>
<path d="M4562 15231 c-6 -16 -6 -34 -1 -42 6 -10 9 -4 9 19 0 20 4 31 10 27
6 -3 10 -2 10 4 0 24 -19 19 -28 -8z"/>
<path d="M4515 15110 c-3 -5 -1 -10 4 -10 6 0 11 5 11 10 0 6 -2 10 -4 10 -3
0 -8 -4 -11 -10z"/>
<path d="M6038 12073 c7 -3 16 -2 19 1 4 3 -2 6 -13 5 -11 0 -14 -3 -6 -6z"/>
<path d="M12888 12113 c7 -3 16 -2 19 1 4 3 -2 6 -13 5 -11 0 -14 -3 -6 -6z"/>
<path d="M10211 11664 c0 -11 3 -14 6 -6 3 7 2 16 -1 19 -3 4 -6 -2 -5 -13z"/>
<path d="M11700 10255 c0 -14 4 -25 9 -25 4 0 6 11 3 25 -2 14 -6 25 -8 25 -2
0 -4 -11 -4 -25z"/>
<path d="M12102 9460 c0 -14 2 -19 5 -12 2 6 2 18 0 25 -3 6 -5 1 -5 -13z"/>
<path d="M11414 9060 c0 -63 1 -89 3 -57 2 31 2 83 0 115 -2 31 -3 5 -3 -58z"/>
<path d="M12400 8895 c0 -8 5 -15 10 -15 6 0 10 7 10 15 0 8 -4 15 -10 15 -5
0 -10 -7 -10 -15z"/>
<path d="M14828 9955 c6 -11 11 -24 12 -30 2 -5 5 -16 8 -24 3 -7 0 -22 -7
-33 -7 -11 -10 -23 -6 -26 3 -4 10 0 15 8 8 13 10 13 10 1 0 -10 3 -12 10 -5
12 12 -6 72 -32 105 -14 17 -17 19 -10 4z"/>
<path d="M14811 9870 c-6 -18 -6 -28 -1 -25 6 4 10 13 10 21 0 8 5 14 10 14 6
0 10 5 10 10 0 22 -19 8 -29 -20z"/>
<path d="M14220 9630 c-13 -8 -12 -10 3 -10 9 0 17 5 17 10 0 12 -1 12 -20 0z"/>
<path d="M10000 7430 c0 -5 9 -10 19 -10 11 0 23 5 26 10 4 6 -5 10 -19 10
-14 0 -26 -4 -26 -10z"/>
<path d="M7997 7273 c-4 -3 -7 -11 -7 -17 0 -6 5 -5 12 2 6 6 9 14 7 17 -3 3
-9 2 -12 -2z"/>
<path d="M7950 7210 c0 -5 5 -10 10 -10 6 0 10 5 10 10 0 6 -4 10 -10 10 -5 0
-10 -4 -10 -10z"/>
<path d="M7936 7153 c-4 -11 -1 -11 14 -3 24 13 25 17 5 17 -8 0 -16 -6 -19
-14z"/>
<path d="M12345 7370 c3 -5 11 -10 16 -10 6 0 7 5 4 10 -3 6 -11 10 -16 10 -6
0 -7 -4 -4 -10z"/>
<path d="M12524 7248 c-4 -7 -3 -10 1 -5 5 4 20 -3 34 -15 l26 -23 -24 28
c-28 31 -28 31 -37 15z"/>
</g>
</svg>
